<?xml version="1.0" encoding="UTF-8"?>
<!-- Generator: Adobe Illustrator 18.1.1, SVG Export Plug-In . SVG Version: 6.00 Build 0)  -->
<svg version="1.1" id="Layer_1" xmlns="http://www.w3.org/2000/svg" xmlns:xlink="http://www.w3.org/1999/xlink" x="0px" y="0px" viewBox="0 0 182 22" enable-background="new 0 0 182 22" xml:space="preserve">
<g>
	<line fill="none" stroke="#808184" stroke-width="0.3" stroke-miterlimit="10" x1="78.7" y1="8.3" x2="78.7" y2="21.5"/>
	<g>
		<g>
			<path fill="#255AA8" d="M11.7,8.7C11,7.8,10,7.1,8.8,6.7l3-6.2H8c-0.5,0-0.8,0.4-0.8,0.9c0,0.5,0.4,0.8,0.9,0.8l0,0h1l-1.9,4     C6.5,6.1,5.7,6.1,5,6.2C3.1,6.5,1.6,7.6,0.8,9.3c-0.5,1-0.7,2.2-0.5,3.3c0.1,0.5,0.5,0.8,1,0.8c0.5-0.1,0.8-0.5,0.8-1     c-0.2-0.8,0-1.6,0.3-2.3C3,8.6,4.2,8.1,5.2,8c0.4-0.1,0.7-0.1,1.1-0.1L1.2,18.7c0,0,0,0,0,0.1v0.1v0.1V19v0.1v0.1v0.1v0.1v0.1     v0.1c0,0,0,0.1,0.1,0.1c0,0,0,0.1,0.1,0.1c0,0,0,0.1,0.1,0.1l0.1,0.1c0,0,0.1,0,0.1,0.1l0,0c1.6,1,3.4,1.5,5,1.5     c2.4,0,4.6-1,5.8-3C13.9,15.8,14.4,11.7,11.7,8.7z M10.8,17.3c-1.5,2.3-4.7,2.8-7.7,1.3l5-10.3C9,8.6,9.7,9.1,10.4,9.8     C12.4,12.1,12.1,15.3,10.8,17.3z"/>
			<path fill="#255AA8" d="M6.3,17c-0.1,0-0.2,0-0.2,0c-0.4,0-0.8-0.4-0.7-0.8c0-0.4,0.4-0.8,0.8-0.7c0.6,0,1.3-0.3,1.6-0.8     c0.3-0.5,0.1-1.5-0.2-2.1c-0.2-0.4-0.1-0.8,0.2-1.1c0.4-0.2,0.8-0.1,1.1,0.2c0.6,0.9,0.9,2.5,0.3,3.6C8.5,16.4,7.4,17,6.3,17z"/>
		</g>
		<g>
			<path d="M24,19.6c-2.6,0-4.7-2.1-4.7-4.7V7c0-0.5,0.4-0.8,0.8-0.8s0.8,0.4,0.8,0.8v7.9c0,1.7,1.4,3.1,3.1,3.1     c1.7,0,3.1-1.4,3.1-3.1s-1.4-3.1-3.1-3.1h-1.6c-0.5,0-0.8-0.4-0.8-0.8c0-0.5,0.4-0.8,0.8-0.8H24c2.6,0,4.7,2.1,4.7,4.7     S26.6,19.6,24,19.6z"/>
			<path d="M34.3,10c-2.6,0-4.7,2.1-4.7,4.7s2.1,4.7,4.7,4.7h1.6c0.5,0,0.8-0.4,0.8-0.8s-0.4-0.8-0.8-0.8h-1.6     c-1.7,0-3.1-1.4-3.1-3.1s1.4-3.1,3.1-3.1c1.7,0,3.1,1.4,3.1,3.1v4.1c0,0.5,0.4,0.8,0.8,0.8c0.5,0,0.8-0.4,0.8-0.8v-4.1     C39,12,36.9,10,34.3,10z"/>
			<path d="M40.9,19.6c-0.5,0-0.8-0.4-0.8-0.8v-4.1c0-2.6,2.1-4.7,4.7-4.7c0.5,0,0.8,0.4,0.8,0.8s-0.4,0.8-0.8,0.8     c-1.7,0-3.1,1.4-3.1,3.1v4.1C41.7,19.2,41.3,19.6,40.9,19.6z"/>
			<path d="M58.1,19.6c-0.5,0-0.8-0.4-0.8-0.8v-4.1c0-2.6,2.1-4.7,4.7-4.7c0.5,0,0.8,0.4,0.8,0.8s-0.4,0.8-0.8,0.8     c-1.7,0-3.1,1.4-3.1,3.1v4.1C59,19.2,58.6,19.6,58.1,19.6z"/>
			<path d="M65.1,19.6c-0.5,0-0.8-0.4-0.8-0.8v-8c0-0.5,0.4-0.8,0.8-0.8s0.8,0.4,0.8,0.8v8C65.9,19.2,65.6,19.6,65.1,19.6z"/>
			<path d="M51.7,19.6c-2.6,0-4.7-2.1-4.7-4.7V7c0-0.5,0.4-0.8,0.8-0.8c0.5,0,0.8,0.4,0.8,0.8v7.9c0,1.7,1.4,3.1,3.1,3.1     s3.1-1.4,3.1-3.1s-1.4-3.1-3.1-3.1h-1.5c-0.5,0-0.8-0.4-0.8-0.8c0-0.5,0.4-0.8,0.8-0.8h1.5c2.6,0,4.7,2.1,4.7,4.7     C56.5,17.5,54.3,19.6,51.7,19.6z"/>
			<g>
				<path d="M68.2,8.6c0.1,0,0.2,0.1,0.2,0.2c0.1,0.1,0.1,0.2,0.2,0.2c0,0.1,0.1,0.2,0.1,0.3c0,0.1,0,0.2-0.1,0.3      c0,0.1-0.1,0.2-0.2,0.2c-0.1,0.1-0.2,0.1-0.2,0.2C68.1,10,68,10,67.9,10c-0.1,0-0.2,0-0.3-0.1c-0.1,0-0.2-0.1-0.2-0.2      c0-0.2,0-0.2-0.1-0.3c0-0.1-0.1-0.2-0.1-0.3c0-0.1,0-0.2,0.1-0.3c0-0.1,0.1-0.2,0.2-0.2c0.1-0.1,0.2-0.1,0.2-0.2      c0.1,0,0.2-0.1,0.3-0.1C68,8.5,68.1,8.5,68.2,8.6z M67.7,8.7c-0.1,0-0.2,0.1-0.2,0.2c-0.1,0.1-0.1,0.2-0.2,0.2      c0,0.1-0.1,0.2-0.1,0.2c0,0.1,0,0.2,0.1,0.2c0,0.1,0.1,0.2,0.2,0.2c0.1,0.1,0.2,0.1,0.2,0.2c0.1,0,0.2,0.1,0.2,0.1      c0.1,0,0.2,0,0.2-0.1c0.1,0,0.2-0.1,0.2-0.2c0.1-0.1,0.1-0.2,0.2-0.2c0-0.1,0.1-0.2,0.1-0.2c0-0.1,0-0.2-0.1-0.2      c0-0.1-0.1-0.2-0.2-0.2c-0.1-0.1-0.2-0.1-0.2-0.2c-0.1,0-0.2-0.1-0.2-0.1C67.9,8.6,67.8,8.7,67.7,8.7z M67.6,9.7V8.8h0.3      c0.1,0,0.2,0,0.2,0.1C68.2,9,68.2,9,68.2,9.1v0.1c0,0,0,0.1-0.1,0.1c0,0-0.1,0-0.1,0.1H68l0.2,0.4h-0.2l-0.2-0.4h-0.2L67.6,9.7      C67.7,9.7,67.6,9.7,67.6,9.7z M68,9.2L68,9.2c0.1,0,0.2,0,0.2-0.1V9.1V9c0,0,0,0-0.1-0.1H68h-0.1h-0.2v0.3L68,9.2      C67.9,9.2,67.9,9.2,68,9.2z"/>
			</g>
		</g>
	</g>
	<g>
		<path fill="#58595B" d="M88.9,18.7h0.8v-7.3h-0.8v-1.1H92v1.1h-0.8v7.2h3.1l0.2-1.5h1.1v2.6H89L88.9,18.7L88.9,18.7z"/>
		<path fill="#58595B" d="M98.9,10.4h3.9v1.1h-0.9l2.7,7.3h0.8v1.1h-3.1v-1.1h0.9l-0.5-1.4h-3.7l-0.5,1.4h1.1v1.1h-3.1v-1.1h0.8    l2.8-7.3H99L98.9,10.4L98.9,10.4z M99.3,16.2h3l-0.9-2.5c-0.2-0.7-0.5-1.7-0.5-1.8c0,0.1-0.3,1.1-0.5,1.8L99.3,16.2z"/>
		<path fill="#58595B" d="M117.6,11.4H117l-2.5,8.3h-0.8l-1.9-5.5c-0.2-0.5-0.4-1.5-0.5-1.6c0,0.1-0.3,1.1-0.5,1.6l-1.9,5.5h-0.7    l-2.5-8.3H105v-1.1h3.1v1.1h-0.9l1.3,4.4c0.2,0.5,0.3,1.4,0.3,1.5c0-0.1,0.2-1,0.4-1.5l1.9-5.4h0.7l1.9,5.4    c0.2,0.5,0.4,1.5,0.4,1.5c0-0.1,0.2-1.1,0.3-1.5l1.3-4.4h-1v-1.1h3L117.6,11.4L117.6,11.4z"/>
		<path fill="#58595B" d="M125.7,10.4c2,0,3.4,1,3.4,3c0,2.1-1.5,3-3.4,3h-1.5v2.3h1v1.1h-3.3v-1h0.8v-7.3h-0.8v-1.1H125.7z     M125.6,15.2c1.2,0,2-0.6,2-1.8c0-1.3-0.8-1.8-2-1.8h-1.5v3.7L125.6,15.2L125.6,15.2z"/>
		<path fill="#58595B" d="M134.1,10.4c1.9,0,3.4,0.9,3.4,3c0,1.4-0.8,2.2-1.9,2.6l1.6,2.8h0.9v1.1h-1.9l-2-3.6c-0.1,0-0.2,0-0.3,0    h-1.5v2.5h0.9v1.1h-3.2v-1.1h0.8v-7.3h-0.8v-1.1H134.1z M134,15.1c1.2,0,2-0.5,2-1.8c0-1.3-0.8-1.8-2-1.8h-1.6v3.6H134z"/>
		<path fill="#58595B" d="M139.2,19.8v-1.1h0.8v-7.3h-0.8v-1.1h6.7v2.3h-1.1l-0.2-1.1h-3.2v3h3.4v1.1h-3.4v3h3.4l0.2-1.2h1.1v2.4    H139.2z"/>
		<path fill="#58595B" d="M150.2,11.4h-0.9l1.8,5c0.2,0.5,0.4,1.4,0.4,1.4s0.2-0.9,0.4-1.4l1.9-5h-1v-1.1h3.1v1.1h-0.8l-3.4,8.3    h-0.8l-3.2-8.3h-0.8v-1.1h3.2L150.2,11.4L150.2,11.4z"/>
		<path fill="#58595B" d="M159.2,18.7h0.8v1.1h-3.1v-1.1h0.8v-7.3h-0.8v-1.1h3.1v1.1h-0.8V18.7z"/>
		<path fill="#58595B" d="M161.4,19.8v-1.1h0.8v-7.3h-0.8v-1.1h6.7v2.3H167l-0.2-1.1h-3.1v3h3.4v1.1h-3.4v3h3.4l0.2-1.2h1.1v2.4    H161.4z"/>
		<path fill="#58595B" d="M181.8,11.4h-0.7l-2.5,8.3h-0.8l-1.9-5.5c-0.2-0.5-0.4-1.5-0.5-1.6c0,0.1-0.3,1.1-0.5,1.6l-1.9,5.5h-0.7    l-2.5-8.3h-0.7v-1.1h3.1v1.1h-0.9l1.3,4.4c0.2,0.5,0.3,1.4,0.3,1.5c0-0.1,0.2-1,0.4-1.5l1.9-5.4h0.7l1.9,5.4    c0.2,0.5,0.4,1.5,0.4,1.5c0-0.1,0.2-1.1,0.3-1.5l1.3-4.4h-1v-1.1h3L181.8,11.4L181.8,11.4z"/>
	</g>
</g>
</svg>